<svg width="1137" height="1112" xmlns="http://www.w3.org/2000/svg" xmlns:xlink="http://www.w3.org/1999/xlink" xml:space="preserve" overflow="hidden"><g transform="translate(-586 -536)"><text font-family="Times New Roman,Times New Roman_MSFontService,sans-serif" font-weight="400" font-size="303" transform="matrix(1 0 0 1 767.642 1051)">TEXT</text><path d="M868.397 1142.5 1251.6 1142.5C1301.8 1142.5 1342.5 1184.36 1342.5 1236 1342.5 1287.64 1301.8 1329.5 1251.6 1329.5L868.397 1329.5C818.196 1329.5 777.5 1287.64 777.5 1236 777.5 1184.36 818.196 1142.5 868.397 1142.5Z" stroke="#000000" stroke-width="4.58333" stroke-miterlimit="8" fill="none" fill-rule="evenodd"/><text font-family="Corbel,Corbel_MSFontService,sans-serif" font-weight="400" font-size="83" transform="matrix(1 0 0 1 903.572 1263)">BUTTON</text><path d="M774 693 774 1490.5" stroke="#767171" stroke-width="2.29167" stroke-miterlimit="8" stroke-dasharray="18.3333 6.875" fill="none" fill-rule="evenodd"/><path d="M1534 693 1534 1490.5" stroke="#767171" stroke-width="2.29167" stroke-miterlimit="8" stroke-dasharray="18.3333 6.875" fill="none" fill-rule="evenodd"/><path d="M0 0 965.447 0.000360892" stroke="#767171" stroke-width="2.29167" stroke-miterlimit="8" stroke-dasharray="18.3333 6.875" fill="none" fill-rule="evenodd" transform="matrix(-1 0 0 1 1636.45 1333)"/><path d="M0 0 965.447 0.000360892" stroke="#767171" stroke-width="2.29167" stroke-miterlimit="8" stroke-dasharray="18.3333 6.875" fill="none" fill-rule="evenodd" transform="matrix(-1 0 0 1 1636.45 1139)"/><path d="M0 0 965.447 0.000360892" stroke="#767171" stroke-width="2.29167" stroke-miterlimit="8" stroke-dasharray="18.3333 6.875" fill="none" fill-rule="evenodd" transform="matrix(-1 0 0 1 1636.45 1051)"/><path d="M0 0 965.447 0.000360892" stroke="#767171" stroke-width="2.29167" stroke-miterlimit="8" stroke-dasharray="18.3333 6.875" fill="none" fill-rule="evenodd" transform="matrix(-1 0 0 1 1636.45 849)"/></g></svg>