<svg width="627" height="627" xmlns="http://www.w3.org/2000/svg" xmlns:xlink="http://www.w3.org/1999/xlink" xml:space="preserve" overflow="hidden"><g transform="translate(-1867 -935)"><path d="M2049.5 1102.5C2049.5 1032.91 2105.91 976.5 2175.5 976.5 2245.09 976.5 2301.5 1032.91 2301.5 1102.5 2301.5 1172.09 2245.09 1228.5 2175.5 1228.5 2175.3 1228.5 2175.1 1228.5 2174.9 1228.5L2175.04 1198.23C2227.91 1198.48 2270.98 1155.82 2271.23 1102.96 2271.48 1050.09 2228.82 1007.02 2175.96 1006.77 2123.09 1006.52 2080.02 1049.18 2079.77 1102.04 2079.77 1102.2 2079.77 1102.35 2079.77 1102.5Z" stroke="#000000" stroke-width="4.58333" stroke-miterlimit="8" fill-rule="evenodd"/><path d="M2049.5 1101C2049.5 1092.44 2056.44 1085.5 2065 1085.5L2065 1085.5C2073.56 1085.5 2080.5 1092.44 2080.5 1101L2080.5 1484C2080.5 1492.56 2073.56 1499.5 2065 1499.5L2065 1499.5C2056.44 1499.5 2049.5 1492.56 2049.5 1484Z" stroke="#000000" stroke-width="4.58333" stroke-miterlimit="8" fill-rule="evenodd"/><path d="M2200.5 1197.5C2283.9 1197.5 2351.5 1265.11 2351.5 1348.5 2351.5 1431.9 2283.9 1499.5 2200.5 1499.5 2198.32 1499.5 2196.14 1499.45 2193.97 1499.36L2195.29 1468.68C2261.67 1471.56 2317.81 1420.08 2320.68 1353.71 2323.56 1287.33 2272.08 1231.19 2205.7 1228.32 2203.97 1228.24 2202.24 1228.2 2200.5 1228.2Z" stroke="#000000" stroke-width="4.58333" stroke-miterlimit="8" fill-rule="evenodd"/><path d="M2110.5 1214C2110.5 1205.44 2117.44 1198.5 2126 1198.5L2221 1198.5C2229.56 1198.5 2236.5 1205.44 2236.5 1214L2236.5 1214C2236.5 1222.56 2229.56 1229.5 2221 1229.5L2126 1229.5C2117.44 1229.5 2110.5 1222.56 2110.5 1214Z" stroke="#000000" stroke-width="4.58333" stroke-miterlimit="8" fill-rule="evenodd"/><path d="M2110.5 1484C2110.5 1475.44 2117.44 1468.5 2126 1468.5L2196 1468.5C2204.56 1468.5 2211.5 1475.44 2211.5 1484L2211.5 1484C2211.5 1492.56 2204.56 1499.5 2196 1499.5L2126 1499.5C2117.44 1499.5 2110.5 1492.56 2110.5 1484Z" stroke="#000000" stroke-width="4.58333" stroke-miterlimit="8" fill-rule="evenodd"/></g></svg>